<mxfile host="65bd71144e">
    <diagram id="eGJXEjIkSdGMlAi-1or-" name="TIME">
        <mxGraphModel dx="515" dy="1094" grid="1" gridSize="10" guides="1" tooltips="1" connect="1" arrows="1" fold="1" page="1" pageScale="1" pageWidth="827" pageHeight="1169" math="0" shadow="0">
            <root>
                <mxCell id="0"/>
                <mxCell id="1" parent="0"/>
                <mxCell id="2" style="edgeStyle=none;html=1;entryX=0.5;entryY=0;entryDx=0;entryDy=0;" parent="1" source="3" target="20" edge="1">
                    <mxGeometry relative="1" as="geometry"/>
                </mxCell>
                <mxCell id="3" value="Start" style="rounded=1;whiteSpace=wrap;html=1;" parent="1" vertex="1">
                    <mxGeometry x="260" width="120" height="60" as="geometry"/>
                </mxCell>
                <mxCell id="33" value="" style="edgeStyle=none;html=1;" parent="1" source="8" target="27" edge="1">
                    <mxGeometry relative="1" as="geometry"/>
                </mxCell>
                <mxCell id="8" value="Count to WEEK/DAY/HOUR/MIN/SEC WEEK&lt;br&gt;&lt;br&gt;1w= 7d&lt;br&gt;1d = 24h&lt;br&gt;1h=60min&lt;br&gt;1min=60sec&lt;br&gt;" style="rounded=0;whiteSpace=wrap;html=1;" parent="1" vertex="1">
                    <mxGeometry x="185.5" y="180" width="259" height="140" as="geometry"/>
                </mxCell>
                <mxCell id="19" value="" style="edgeStyle=none;html=1;" parent="1" source="20" target="8" edge="1">
                    <mxGeometry relative="1" as="geometry"/>
                </mxCell>
                <mxCell id="20" value="Input SECONDS" style="shape=parallelogram;perimeter=parallelogramPerimeter;whiteSpace=wrap;html=1;fixedSize=1;" parent="1" vertex="1">
                    <mxGeometry x="255" y="90" width="120" height="60" as="geometry"/>
                </mxCell>
                <mxCell id="34" value="" style="edgeStyle=none;html=1;" parent="1" source="27" target="28" edge="1">
                    <mxGeometry relative="1" as="geometry"/>
                </mxCell>
                <mxCell id="27" value="count weeks&lt;br&gt;&lt;br&gt;&amp;nbsp;(sec_numb / 7d / 24 h / 60 min / 60 sec)&lt;br&gt;&lt;br&gt;weeks = sec_numb / ( 7*24*60*60)&amp;nbsp;&lt;br&gt;sec_number = sec_number - (weeks * (7 * 24 * 60 * 60))&lt;br&gt;" style="rounded=0;whiteSpace=wrap;html=1;" parent="1" vertex="1">
                    <mxGeometry x="215" y="345" width="210" height="140" as="geometry"/>
                </mxCell>
                <mxCell id="35" value="" style="edgeStyle=none;html=1;" parent="1" source="28" target="29" edge="1">
                    <mxGeometry relative="1" as="geometry"/>
                </mxCell>
                <mxCell id="28" value="count days&lt;br&gt;&lt;br&gt;&amp;nbsp;(sec_numb / 24 h / 60 min / 60 sec)&lt;br&gt;&lt;br&gt;days = sec_numb / ( 24*60*60)&amp;nbsp;&lt;br&gt;sec_number = sec_number - (days * (24 * 60 * 60))" style="rounded=0;whiteSpace=wrap;html=1;" parent="1" vertex="1">
                    <mxGeometry x="215" y="515" width="210" height="145" as="geometry"/>
                </mxCell>
                <mxCell id="36" value="" style="edgeStyle=none;html=1;" parent="1" source="29" target="30" edge="1">
                    <mxGeometry relative="1" as="geometry"/>
                </mxCell>
                <mxCell id="29" value="count hours&lt;br&gt;&lt;br&gt;&amp;nbsp;(sec_numb / 60 min / 60 sec)&lt;br&gt;&lt;br&gt;days = sec_numb / ( 60*60)&amp;nbsp;&lt;br&gt;sec_number = sec_number - (hours * (60 * 60))" style="rounded=0;whiteSpace=wrap;html=1;" parent="1" vertex="1">
                    <mxGeometry x="215" y="680" width="210" height="140" as="geometry"/>
                </mxCell>
                <mxCell id="37" value="" style="edgeStyle=none;html=1;" parent="1" source="30" target="31" edge="1">
                    <mxGeometry relative="1" as="geometry"/>
                </mxCell>
                <mxCell id="30" value="count minutes&lt;br&gt;&lt;br&gt;&amp;nbsp;(sec_numb / 60 sec)&lt;br&gt;&lt;br&gt;days = sec_numb / ( 60)&amp;nbsp;&lt;br&gt;sec_number = sec_number - (minutes * (60))" style="rounded=0;whiteSpace=wrap;html=1;" parent="1" vertex="1">
                    <mxGeometry x="215" y="860" width="210" height="140" as="geometry"/>
                </mxCell>
                <mxCell id="38" style="edgeStyle=none;html=1;entryX=0.5;entryY=0;entryDx=0;entryDy=0;" parent="1" source="31" target="32" edge="1">
                    <mxGeometry relative="1" as="geometry"/>
                </mxCell>
                <mxCell id="31" value="count seconds (rest)&lt;br&gt;&lt;br&gt;&amp;nbsp;(sec_numb = seconds)&lt;br&gt;&lt;br&gt;seconds = sec_numb" style="rounded=0;whiteSpace=wrap;html=1;" parent="1" vertex="1">
                    <mxGeometry x="220" y="1040" width="210" height="140" as="geometry"/>
                </mxCell>
                <mxCell id="32" value="&lt;font style=&quot;font-size: 18px&quot;&gt;OUTPUT&amp;nbsp; &lt;br&gt;&quot; $weeks &quot; weeks &quot; &lt;br&gt;$days &quot; days &quot; &lt;br&gt;$hours &quot; hours &quot; &lt;br&gt;$minutes &quot; minutes &quot; &lt;br&gt;$seconds &quot; seconds&quot; &quot;&lt;/font&gt;" style="shape=parallelogram;perimeter=parallelogramPerimeter;whiteSpace=wrap;html=1;fixedSize=1;" parent="1" vertex="1">
                    <mxGeometry x="131.25" y="1270" width="387.5" height="280" as="geometry"/>
                </mxCell>
            </root>
        </mxGraphModel>
    </diagram>
    <diagram id="R8G2nKe4hc5YsSxb8tDx" name="Seite-2">
        <mxGraphModel dx="515" dy="1094" grid="1" gridSize="10" guides="1" tooltips="1" connect="1" arrows="1" fold="1" page="1" pageScale="1" pageWidth="827" pageHeight="1169" math="0" shadow="0">
            <root>
                <mxCell id="hDWrJoW8gq-0_0mluh1s-0"/>
                <mxCell id="hDWrJoW8gq-0_0mluh1s-1" parent="hDWrJoW8gq-0_0mluh1s-0"/>
                <mxCell id="gHwUxKD0hvNlRnyqSO93-0" style="edgeStyle=none;html=1;entryX=0.5;entryY=0;entryDx=0;entryDy=0;" edge="1" parent="hDWrJoW8gq-0_0mluh1s-1" source="gHwUxKD0hvNlRnyqSO93-1" target="gHwUxKD0hvNlRnyqSO93-5">
                    <mxGeometry relative="1" as="geometry"/>
                </mxCell>
                <mxCell id="gHwUxKD0hvNlRnyqSO93-1" value="Start" style="rounded=1;whiteSpace=wrap;html=1;" vertex="1" parent="hDWrJoW8gq-0_0mluh1s-1">
                    <mxGeometry x="260" width="120" height="60" as="geometry"/>
                </mxCell>
                <mxCell id="gHwUxKD0hvNlRnyqSO93-2" value="" style="edgeStyle=none;html=1;" edge="1" parent="hDWrJoW8gq-0_0mluh1s-1" source="gHwUxKD0hvNlRnyqSO93-3" target="gHwUxKD0hvNlRnyqSO93-7">
                    <mxGeometry relative="1" as="geometry"/>
                </mxCell>
                <mxCell id="gHwUxKD0hvNlRnyqSO93-3" value="Exchange to NOTES:&lt;br&gt;STEPS:&lt;br&gt;&lt;br&gt;/ 1000 = (10 * 100)&lt;br&gt;/ 100 =&amp;nbsp; (2 * 50)&lt;br&gt;/ 50 = (2 * 20) + (1 * 10)&lt;br&gt;/ 20 = (2 * 10)&lt;br&gt;/ 10 = (1 * 10)" style="rounded=0;whiteSpace=wrap;html=1;" vertex="1" parent="hDWrJoW8gq-0_0mluh1s-1">
                    <mxGeometry x="185.5" y="180" width="259" height="140" as="geometry"/>
                </mxCell>
                <mxCell id="gHwUxKD0hvNlRnyqSO93-4" value="" style="edgeStyle=none;html=1;" edge="1" parent="hDWrJoW8gq-0_0mluh1s-1" source="gHwUxKD0hvNlRnyqSO93-5" target="gHwUxKD0hvNlRnyqSO93-3">
                    <mxGeometry relative="1" as="geometry"/>
                </mxCell>
                <mxCell id="gHwUxKD0hvNlRnyqSO93-5" value="Input AMOUNT" style="shape=parallelogram;perimeter=parallelogramPerimeter;whiteSpace=wrap;html=1;fixedSize=1;" vertex="1" parent="hDWrJoW8gq-0_0mluh1s-1">
                    <mxGeometry x="255" y="90" width="120" height="60" as="geometry"/>
                </mxCell>
                <mxCell id="gHwUxKD0hvNlRnyqSO93-6" value="" style="edgeStyle=none;html=1;" edge="1" parent="hDWrJoW8gq-0_0mluh1s-1" source="gHwUxKD0hvNlRnyqSO93-7" target="gHwUxKD0hvNlRnyqSO93-9">
                    <mxGeometry relative="1" as="geometry"/>
                </mxCell>
                <mxCell id="gHwUxKD0hvNlRnyqSO93-7" value="count weeks&lt;br&gt;&lt;br&gt;&amp;nbsp;(sec_numb / 7d / 24 h / 60 min / 60 sec)&lt;br&gt;&lt;br&gt;weeks = sec_numb / ( 7*24*60*60)&amp;nbsp;&lt;br&gt;sec_number = sec_number - (weeks * (7 * 24 * 60 * 60))&lt;br&gt;" style="rounded=0;whiteSpace=wrap;html=1;" vertex="1" parent="hDWrJoW8gq-0_0mluh1s-1">
                    <mxGeometry x="215" y="345" width="210" height="140" as="geometry"/>
                </mxCell>
                <mxCell id="gHwUxKD0hvNlRnyqSO93-8" value="" style="edgeStyle=none;html=1;" edge="1" parent="hDWrJoW8gq-0_0mluh1s-1" source="gHwUxKD0hvNlRnyqSO93-9" target="gHwUxKD0hvNlRnyqSO93-11">
                    <mxGeometry relative="1" as="geometry"/>
                </mxCell>
                <mxCell id="gHwUxKD0hvNlRnyqSO93-9" value="count days&lt;br&gt;&lt;br&gt;&amp;nbsp;(sec_numb / 24 h / 60 min / 60 sec)&lt;br&gt;&lt;br&gt;days = sec_numb / ( 24*60*60)&amp;nbsp;&lt;br&gt;sec_number = sec_number - (days * (24 * 60 * 60))" style="rounded=0;whiteSpace=wrap;html=1;" vertex="1" parent="hDWrJoW8gq-0_0mluh1s-1">
                    <mxGeometry x="215" y="515" width="210" height="145" as="geometry"/>
                </mxCell>
                <mxCell id="gHwUxKD0hvNlRnyqSO93-10" value="" style="edgeStyle=none;html=1;" edge="1" parent="hDWrJoW8gq-0_0mluh1s-1" source="gHwUxKD0hvNlRnyqSO93-11" target="gHwUxKD0hvNlRnyqSO93-13">
                    <mxGeometry relative="1" as="geometry"/>
                </mxCell>
                <mxCell id="gHwUxKD0hvNlRnyqSO93-11" value="count hours&lt;br&gt;&lt;br&gt;&amp;nbsp;(sec_numb / 60 min / 60 sec)&lt;br&gt;&lt;br&gt;days = sec_numb / ( 60*60)&amp;nbsp;&lt;br&gt;sec_number = sec_number - (hours * (60 * 60))" style="rounded=0;whiteSpace=wrap;html=1;" vertex="1" parent="hDWrJoW8gq-0_0mluh1s-1">
                    <mxGeometry x="215" y="680" width="210" height="140" as="geometry"/>
                </mxCell>
                <mxCell id="gHwUxKD0hvNlRnyqSO93-12" value="" style="edgeStyle=none;html=1;" edge="1" parent="hDWrJoW8gq-0_0mluh1s-1" source="gHwUxKD0hvNlRnyqSO93-13" target="gHwUxKD0hvNlRnyqSO93-15">
                    <mxGeometry relative="1" as="geometry"/>
                </mxCell>
                <mxCell id="gHwUxKD0hvNlRnyqSO93-13" value="count minutes&lt;br&gt;&lt;br&gt;&amp;nbsp;(sec_numb / 60 sec)&lt;br&gt;&lt;br&gt;days = sec_numb / ( 60)&amp;nbsp;&lt;br&gt;sec_number = sec_number - (minutes * (60))" style="rounded=0;whiteSpace=wrap;html=1;" vertex="1" parent="hDWrJoW8gq-0_0mluh1s-1">
                    <mxGeometry x="215" y="860" width="210" height="140" as="geometry"/>
                </mxCell>
                <mxCell id="gHwUxKD0hvNlRnyqSO93-14" style="edgeStyle=none;html=1;entryX=0.5;entryY=0;entryDx=0;entryDy=0;" edge="1" parent="hDWrJoW8gq-0_0mluh1s-1" source="gHwUxKD0hvNlRnyqSO93-15" target="gHwUxKD0hvNlRnyqSO93-16">
                    <mxGeometry relative="1" as="geometry"/>
                </mxCell>
                <mxCell id="gHwUxKD0hvNlRnyqSO93-15" value="count seconds (rest)&lt;br&gt;&lt;br&gt;&amp;nbsp;(sec_numb = seconds)&lt;br&gt;&lt;br&gt;seconds = sec_numb" style="rounded=0;whiteSpace=wrap;html=1;" vertex="1" parent="hDWrJoW8gq-0_0mluh1s-1">
                    <mxGeometry x="220" y="1040" width="210" height="140" as="geometry"/>
                </mxCell>
                <mxCell id="gHwUxKD0hvNlRnyqSO93-16" value="&lt;font style=&quot;font-size: 18px&quot;&gt;OUTPUT&amp;nbsp; &lt;br&gt;&quot; $weeks &quot; weeks &quot; &lt;br&gt;$days &quot; days &quot; &lt;br&gt;$hours &quot; hours &quot; &lt;br&gt;$minutes &quot; minutes &quot; &lt;br&gt;$seconds &quot; seconds&quot; &quot;&lt;/font&gt;" style="shape=parallelogram;perimeter=parallelogramPerimeter;whiteSpace=wrap;html=1;fixedSize=1;" vertex="1" parent="hDWrJoW8gq-0_0mluh1s-1">
                    <mxGeometry x="131.25" y="1270" width="387.5" height="280" as="geometry"/>
                </mxCell>
            </root>
        </mxGraphModel>
    </diagram>
</mxfile>